<?xml version="1.0" encoding="UTF-8"?><svg id="Capa_1" xmlns="http://www.w3.org/2000/svg" viewBox="0 0 1080 1920"><defs><style>.cls-1{fill:#ffd25f;}.cls-2{fill:#f39a72;}.cls-3{fill:#f07f65;}.cls-4{fill:#f49c86;}.cls-5{fill:#4d5157;}.cls-6{fill:#7d828c;}.cls-7{fill:#ee715c;}</style></defs><g><rect class="cls-6" x="2.5" y="1174.14" width="282.32" height="89.37"/><path class="cls-5" d="M282.32,1176.64v84.37H5v-84.37H282.32m5-5H0v94.37H287.32v-94.37h0Z"/></g><g><path class="cls-6" d="M381.37,1357.17v-70.46c0-12.41-10.09-22.5-22.5-22.5h-69.05v-89.37h89.05c50.65,0,91.87,41.21,91.87,91.87v90.46h-89.37Z"/><path class="cls-5" d="M378.87,1177.34c49.28,0,89.37,40.09,89.37,89.37v87.96h-84.37v-67.96c0-13.79-11.21-25-25-25h-66.55v-84.37h86.55m0-5h-91.55v94.37h71.55c11.05,0,20,8.95,20,20v72.96h94.37v-92.96h0c0-52.12-42.25-94.37-94.37-94.37h0Z"/></g><g><rect class="cls-6" x="381.37" y="1362.17" width="89.37" height="553.89"/><path class="cls-5" d="M468.24,1364.67v548.89h-84.37v-548.89h84.37m5-5h-94.37v558.89h94.37v-558.89h0Z"/></g><g><rect class="cls-6" x="276.29" y="1166.01" width="25.42" height="104.81"/><path class="cls-5" d="M299.2,1168.51v99.81h-20.42v-99.81h20.42m5-5h-30.42v109.81h30.42v-109.81h0Z"/></g><g><rect class="cls-6" x="373.65" y="1346.96" width="104.81" height="25.42"/><path class="cls-5" d="M475.96,1349.46v20.42h-99.81v-20.42h99.81m5-5h-109.81v30.42h109.81v-30.42h0Z"/></g><g><rect class="cls-6" x="372.15" y="1909.06" width="104.81" height="25.42"/><path class="cls-5" d="M474.46,1911.56v20.42h-99.81v-20.42h99.81m5-5h-109.81v30.42h109.81v-30.42h0Z"/></g><path class="cls-7" d="M409.98,1223.6c-2.04-.95-4.27-.78-6.41-1.01-8.99-.97-16.74-5.04-24.22-9.69-18.33-11.4-28.45-28.35-32.78-49.12-3.18-15.27-4.21-30.68-2.53-46.2,1.47-13.61,6.04-26.08,14.73-36.85,.22-.27,.46-.54,.7-.8,.04-.04,.13-.04,.2-.06-3.44,17.26,4.33,34.01,13.44,49.58,.37-2.66,.6-5,1.02-7.31,1.74-9.6,5.79-18.31,10.44-26.79,5.77-10.51,12.41-20.53,17.9-31.19,3.61-7,6.68-14.23,8-22.04,2.26-13.37,1.03-26.05-7.95-37.04-.08-.1-.1-.26-.26-.72,2.64,1.05,5.08,1.97,7.48,2.98,12.62,5.34,24.47,12.01,35.02,20.83,16.34,13.66,27.26,30.57,30.67,51.9,1.08,6.75,.92,15.71-.22,23.03,7.6-8.7,11.1-18.88,10.67-30.45,.62-.3,.74,.27,.96,.55,10.34,13.49,17.36,28.52,20.25,45.28,4,23.19-.79,44.52-14.44,63.77-5.21,7.35-10.77,14.46-16.99,20.95-5.13,5.34-11.53,9.1-18.22,12.24-5.3,2.49-10.76,4.56-16.56,5.62-.5,.12-.57-.15-.51-.55,1.31-1.28,3.08-1.76,4.63-2.62,9.65-5.32,17.26-12.63,21.83-22.78,4.93-10.95,4.23-21.94-.09-32.88-1.73-4.38-4.29-8.29-7.03-12-.81,7.13-4.14,13.15-9.17,18.29-.82,.84-1.94,2.2-3.03,1.48-1.32-.88,.12-2.16,.51-3.19,2.8-7.49,4.35-15.15,4.32-23.22-.03-9.14-2.16-17.68-6.13-25.81-3.23-6.61-7.62-12.39-13.02-17.4-.73-.68-1.46-1.36-2.59-1.91-.03,1.5,0,2.88,.09,4.25,.47,7.5-1.74,14.38-4.72,21.1-3.27,7.36-7.84,13.92-12.27,20.58-4.15,6.24-8.49,12.38-11.67,19.2-3.23,6.93-5.3,14.16-5.22,21.9,.02,2.52,.53,4.96,1.15,7.39,.2,.78,.82,1.83-.14,2.32-.87,.44-1.53-.55-2.09-1.15-2.67-2.94-4.64-6.34-6.14-9.99-2.19-5.33-3.12-10.92-3.43-16.69-.17-3.29-.25-6.52,.27-9.88-.92,2.63-2.36,4.89-3.15,7.44-3.15,10.17-2.77,20.16,1.59,29.89,6.17,13.77,16.42,22.94,31.06,27.03,.68,.19,1.41,.3,1.84,.98-.34,1.01-1.18,.38-1.78,.56-1.15,.11-2.33-.24-3.46,.22h-2.57Z"/><path class="cls-1" d="M417.67,1222.8c-18.69-4.14-33.3-19.4-36.4-38.26-1.63-9.88,0-19.23,5.58-28.36-.83,14.59,.34,28.09,10.9,38.88-.54-2.92-1.39-5.76-1.46-8.74-.26-10,2.87-19.07,7.7-27.65,5.32-9.46,12.08-18.01,17.52-27.39,5.36-9.23,9.44-18.89,8.66-29.93-.09-1.33-.26-2.66-.45-4.55,11.36,8.93,18.45,20.08,21.68,33.57,3.23,13.51,1.71,26.69-4.06,39.44,4.96-1.55,10.69-11.35,12.06-20.59,2.79,2.88,4.69,6.19,6.42,9.57,3.19,6.25,4.88,12.92,4.99,19.94,.17,10.71-3.71,19.92-10.66,27.91-5.43,6.24-12.02,10.9-19.68,14.06-.84,.85-2.03,.8-3.06,1.16-2.33,.97-4.96,.73-7.28,1.77h-9.43c-.96-.46-2.14-.06-3.03-.8Z"/><path class="cls-3" d="M417.67,1222.8c1.06,.06,2.12,.17,3.03,.8h-4.72c-.14-.09-.19-.18-.14-.27,.04-.1,.08-.14,.13-.14,.58-.08,1.23,.18,1.7-.38Z"/><path class="cls-4" d="M415.97,1223.18c.01,.14,.02,.28,.02,.42h-3.43c1.04-.9,2.28-.21,3.41-.42Z"/><path class="cls-2" d="M437.41,1221.83c1.02-.39,2.04-.77,3.06-1.16,.14,.13,.28,.26,.42,.39-1.1,.54-2.25,.83-3.48,.76Z"/><path class="cls-7" d="M410.8,1221.06c-9.7-2-18.49-6.08-26.8-11.41-7.51-4.82-12.77-11.75-18.25-18.51-6.94-8.58-13.2-17.6-17.11-28.02-5.19-13.85-6.66-28.08-4.35-42.72,2.77-17.59,9.92-33.25,20.64-47.37,.17-.22,.23-.51,.59-.66-.22,11.66,3.28,21.8,11.01,30.53-.16-1.28-.34-2.56-.47-3.85-2.44-23.2,4.84-43.18,20.14-60.44,14.44-16.28,32.84-26.46,52.88-34.13,.36,.52-.05,.71-.21,.95-.19,.3-.45,.56-.67,.84-5.78,7.5-7.9,16.13-7.96,25.44-.09,13.62,5.07,25.6,11.49,37.18,6.02,10.86,12.89,21.23,18.46,32.35,3.63,7.24,6.42,14.77,7.73,22.8,.27,1.68,0,3.43,.76,5.46,8.64-15.66,16.75-31.07,13.27-49.97,5.07,6.19,8.92,12.71,11.52,19.96,3.21,8.95,4.53,18.21,4.81,27.7,.43,14.65-.96,29.07-4.85,43.22-7.07,25.79-24.06,42.15-48.81,50.96-3.75,1.33-7.86,1.32-11.83,1.78-.52,.06-1.17-.24-1.53,.44h-2.57c-.98-.47-2.02-.11-3.03-.22-.6-.16-1.41,.41-1.78-.52,.51-.83,1.43-.87,2.23-1.12,19.08-5.94,30.44-18.89,33.88-38.42,1.37-7.75,.23-15.54-3.41-22.75-.47-.94-1.14-1.81-1.23-3.27-.07,2.88,.8,5.37,.31,7.94-.49,2.6-.29,5.26-.67,7.89-1.08,7.44-3.68,14.21-8.36,20.13-.72,.91-1.63,2.49-2.75,1.92-1.31-.66-.17-2.19,.11-3.27,1.67-6.6,.76-13.06-1.01-19.45-1.99-7.17-5.55-13.6-9.55-19.81-5.22-8.1-10.99-15.86-15.56-24.37-4.81-8.97-7.88-18.37-6.8-28.74,.03-.28,.11-.56-.21-1.01-2.41,1.52-4.32,3.63-6.18,5.71-8.73,9.79-13.98,21.2-15.18,34.28-.89,9.74,.47,19.24,4.17,28.36,.39,.96,1.32,2.21,.3,2.93-1.1,.79-2.09-.48-2.84-1.24-5.09-5.18-8.42-11.27-9.21-18.41-1.56,2.41-3.32,4.82-4.77,7.43-3.76,6.77-5.72,14.04-5.72,21.73,0,10.7,4.09,19.86,11.26,27.72,4.74,5.19,10.3,9.24,16.65,12.21,.71,.33,1.45,.62,1.95,1.28,.07,.4,0,.67-.51,.55Z"/><path class="cls-1" d="M411.22,1220.67c-13.51-5.88-23.62-15.16-28.44-29.35-3.35-9.87-2.25-19.68,1.6-29.23,1.87-4.65,4.41-8.92,7.9-12.98,1.1,8.55,4.78,15.41,11.51,20.69-10.57-28.3-4.95-52.53,17.78-73.1,.69,1.67,.01,2.74-.06,3.79-.6,8.12,1.3,15.69,4.63,23.01,4.7,10.33,11.68,19.24,17.73,28.73,5.01,7.86,9.28,16.03,10.9,25.36,.94,5.42,.98,10.76-.71,16.05-.14,.45-.53,.87,0,1.63,10.44-11.01,11.61-24.51,10.8-38.81,15.58,24.01-.06,59.66-30.84,66.33-1.02,.83-2.36,.31-3.46,.8h-9.43c-2.31-1.12-4.92-.99-7.31-1.79-.85-.42-1.9-.38-2.6-1.13Z"/><path class="cls-3" d="M430.56,1223.6c1.08-.59,2.27-.69,3.46-.8,.47,.57,1.12,.3,1.7,.38,.13,.1,.17,.19,.12,.28-.05,.09-.09,.13-.14,.13h-5.14Z"/><path class="cls-4" d="M435.7,1223.6c0-.14,0-.28,.02-.42,.99,.17,2.09-.43,2.98,.42h-3Z"/><path class="cls-2" d="M411.22,1220.67c.89,.33,1.89,.4,2.6,1.13-1.06-.04-2.08-.24-3.02-.74,.14-.13,.28-.26,.42-.39Z"/></svg>