<?xml version="1.0" encoding="UTF-8"?><svg id="Capa_1" xmlns="http://www.w3.org/2000/svg" viewBox="0 0 1080 1920"><defs><style>.cls-1{fill:#4d5157;}.cls-2{fill:#7d828c;}</style></defs><g><rect class="cls-2" x="370.25" y="-202.38" width="89.37" height="335.68"/><path class="cls-1" d="M457.11-199.88V130.8h-84.37V-199.88h84.37m5-5h-94.37V135.8h94.37V-204.88h0Z"/></g><g><rect class="cls-2" x="2.5" y="235.17" width="265.08" height="89.37"/><path class="cls-1" d="M265.08,237.67v84.37H5v-84.37H265.08m5-5H0v94.37H270.08v-94.37h0Z"/></g><g><g><path class="cls-2" d="M276.73,324.54v-89.37h70.46c12.41,0,22.5-10.09,22.5-22.5v-69.05h89.37v89.05c0,50.66-41.21,91.87-91.87,91.87h-90.46Z"/><path class="cls-1" d="M456.55,146.12v86.55c0,49.28-40.09,89.37-89.37,89.37h-87.96v-84.37h67.96c13.79,0,25-11.21,25-25v-66.55h84.37m5-5h-94.37v71.55c0,11.05-8.95,20-20,20h-72.96v94.37h92.96c52.12,0,94.37-42.25,94.37-94.37v-91.55h0Z"/></g><g><rect class="cls-2" x="362.67" y="130.09" width="104.81" height="25.42"/><path class="cls-1" d="M464.98,132.59v20.42h-99.81v-20.42h99.81m5-5h-109.81v30.42h109.81v-30.42h0Z"/></g><g><rect class="cls-2" x="257.37" y="227.45" width="25.42" height="104.81"/><path class="cls-1" d="M280.29,229.95v99.81h-20.42v-99.81h20.42m5-5h-30.42v109.81h30.42v-109.81h0Z"/></g></g></svg>