<?xml version="1.0" encoding="UTF-8"?><svg id="Capa_1" xmlns="http://www.w3.org/2000/svg" viewBox="0 0 1080 1920"><defs><style>.cls-1{fill:#4d5157;}.cls-2{fill:#7d828c;}</style></defs><g><rect class="cls-2" x="565.79" y="102.08" width="511.71" height="89.37"/><path class="cls-1" d="M1075,104.58v84.37h-506.71V104.58h506.71m5-5H563.29v94.37h516.71V99.58h0Z"/></g><g><rect class="cls-2" x="370.25" y="1717.62" width="89.37" height="335.68"/><path class="cls-1" d="M457.11,1720.12v330.68h-84.37v-330.68h84.37m5-5h-94.37v340.68h94.37v-340.68h0Z"/></g><g><g><path class="cls-2" d="M471.74,190.74c-50.66,0-91.87-41.21-91.87-91.87V8.42h89.37V78.87c0,12.41,10.09,22.5,22.5,22.5h69.05v89.37h-89.05Z"/><path class="cls-1" d="M466.74,10.92V78.87c0,13.79,11.21,25,25,25h66.55v84.37h-86.55c-49.28,0-89.37-40.09-89.37-89.37V10.92h84.37m5-5h-94.37V98.87h0c0,52.12,42.25,94.37,94.37,94.37h91.55V98.87h-71.55c-11.05,0-20-8.95-20-20V5.92h0Z"/></g><g><rect class="cls-2" x="548.91" y="94.36" width="25.42" height="104.81"/><path class="cls-1" d="M571.82,96.86v99.81h-20.42V96.86h20.42m5-5h-30.42v109.81h30.42V91.86h0Z"/></g><g><rect class="cls-2" x="372.15" y="-10.94" width="104.81" height="25.42"/><path class="cls-1" d="M474.46-8.44V11.97h-99.81V-8.44h99.81m5-5h-109.81V16.97h109.81V-13.44h0Z"/></g></g><g><rect class="cls-2" x="565.79" y="1534.88" width="511.71" height="89.37"/><path class="cls-1" d="M1075,1537.38v84.37h-506.71v-84.37h506.71m5-5H563.29v94.37h516.71v-94.37h0Z"/></g><g><g><path class="cls-2" d="M370.95,1714.29v-89.05c0-50.66,41.21-91.87,91.87-91.87h90.46v89.37h-70.46c-12.41,0-22.5,10.09-22.5,22.5v69.05h-89.37Z"/><path class="cls-1" d="M550.77,1535.88v84.37h-67.96c-13.79,0-25,11.21-25,25v66.55h-84.37v-86.55c0-49.28,40.09-89.37,89.37-89.37h87.96m5-5h-92.96c-52.12,0-94.37,42.25-94.37,94.37v91.55h94.37v-71.55c0-11.05,8.95-20,20-20h72.96v-94.37h0Z"/></g><g><rect class="cls-2" x="362.53" y="1702.41" width="104.81" height="25.42"/><path class="cls-1" d="M464.83,1704.91v20.42h-99.81v-20.42h99.81m5-5h-109.81v30.42h109.81v-30.42h0Z"/></g><g><rect class="cls-2" x="547.22" y="1525.66" width="25.42" height="104.81"/><path class="cls-1" d="M570.13,1528.16v99.81h-20.42v-99.81h20.42m5-5h-30.42v109.81h30.42v-109.81h0Z"/></g></g></svg>