<?xml version="1.0" encoding="UTF-8"?><svg xmlns="http://www.w3.org/2000/svg" viewBox="0 0 419.81 122.7"><defs><style>.d{fill:#f4f6f5;}</style></defs><g id="a"/><g id="b"><g id="c"><g><g><g><path class="d" d="M120.6,58.13v14.98c0,.81,.17,1.59,.51,2.35,.34,.76,.79,1.41,1.36,1.97,.57,.55,1.26,1,2.07,1.34,.81,.34,1.67,.51,2.58,.51h36.8l-.02-1.89c-.04-3.65-3.01-6.59-6.67-6.59h-27.89v-5.35h21.84c2.73,0,4.94-2.23,4.92-4.97l-.02-2.27h-26.73l-8.73-.07Z"/><path class="d" d="M120.6,52.46v-2.22c0-.91,.17-1.75,.51-2.52,.34-.77,.78-1.44,1.34-1.99,.55-.56,1.21-.99,1.97-1.31,.76-.32,1.54-.48,2.35-.48h37.82v3.12c0,2.96-2.4,5.36-5.36,5.36h-29.89l-8.73,.05Z"/></g><g><path class="d" d="M375.83,58.13v14.98c0,.81,.17,1.59,.51,2.35,.34,.76,.79,1.41,1.36,1.97,.57,.55,1.26,1,2.07,1.34,.81,.34,1.67,.51,2.58,.51h36.8l-.02-1.89c-.04-3.65-3.01-6.59-6.67-6.59h-27.89v-5.35h21.84c2.73,0,4.94-2.23,4.92-4.97l-.02-2.27h-26.73l-8.73-.07Z"/><path class="d" d="M375.83,52.46v-2.22c0-.91,.17-1.75,.51-2.52,.34-.77,.78-1.44,1.34-1.99,.55-.56,1.21-.99,1.97-1.31,.76-.32,1.54-.48,2.35-.48h37.82v3.12c0,2.96-2.4,5.36-5.36,5.36h-29.89l-8.73,.05Z"/></g><g><path class="d" d="M177.84,51.91h28.02c3.54,0,6.41-2.87,6.41-6.41v-2.07h-37c-.81,0-1.59,.16-2.35,.48-.76,.32-1.41,.76-1.97,1.31-.56,.55-1,1.22-1.34,1.99-.34,.77-.51,1.62-.51,2.52v2.2l8.73-.03Z"/><path class="d" d="M169.1,58.96v13.64c0,.81,.17,1.59,.51,2.35,.34,.76,.79,1.41,1.36,1.97,.57,.55,1.26,1,2.07,1.34,.81,.34,1.67,.51,2.58,.51h35.22l-.03-1.35c-.07-3.96-3.3-7.13-7.26-7.13h-25.71v-11.37l-8.73,.04Z"/></g><path class="d" d="M215.42,49.74c0-.91,.17-1.75,.51-2.52,.34-.77,.78-1.44,1.34-1.99,.55-.56,1.21-.99,1.97-1.31s1.54-.48,2.35-.48h29.94c.91,0,1.77,.17,2.57,.51,.81,.34,1.5,.78,2.07,1.34,.57,.56,1.03,1.21,1.36,1.97,.34,.76,.51,1.54,.51,2.35v22.87c0,.91-.17,1.75-.51,2.52-.34,.77-.78,1.44-1.34,2-.56,.55-1.21,.99-1.97,1.31s-1.54,.48-2.35,.48h-29.94c-.91,0-1.77-.17-2.58-.51-.81-.34-1.5-.78-2.07-1.34s-1.03-1.21-1.36-1.97c-.34-.76-.51-1.54-.51-2.35v-22.87Zm33.88,20.55v-18.38h-25.14v18.38h25.14Z"/><path class="d" d="M281.36,49.69c0-.77,.12-1.55,.35-2.32,.24-.77,.61-1.47,1.11-2.09s1.16-1.13,1.97-1.51,1.78-.58,2.93-.58c1.04,0,2.02,.19,2.93,.58s1.7,.92,2.37,1.59l21.46,22.11v-18.48c0-2.93,2.37-5.3,5.3-5.3h3.44v29.33c0,.77-.13,1.55-.38,2.32-.25,.77-.63,1.47-1.14,2.1-.5,.62-1.16,1.13-1.97,1.51-.81,.39-1.77,.58-2.88,.58-1.18,0-2.19-.19-3.03-.58s-1.6-.92-2.27-1.59l-21.46-22.11v19.08c0,2.6-2.1,4.7-4.7,4.7h-4.03v-29.33Z"/><path class="d" d="M334.56,56.05h2.63v14.24h25.04v-18.38h-28.41c-2.96,0-5.37-2.4-5.37-5.37v-3.11h35.99c.91,0,1.77,.17,2.57,.51,.81,.34,1.5,.78,2.07,1.34,.57,.56,1.03,1.21,1.36,1.97,.34,.76,.5,1.54,.5,2.35v22.87c0,.91-.17,1.75-.5,2.52-.34,.77-.78,1.44-1.34,2s-1.21,.99-1.97,1.31c-.76,.32-1.54,.48-2.35,.48h-36.35v-16.62c0-3.37,2.73-6.1,6.1-6.1Z"/><rect class="d" x="265.73" y="43.42" width="9.62" height="35.34"/></g><g><circle class="d" cx="42.85" cy="2.41" r="1.59"/><circle class="d" cx="34.98" cy="9.49" r="2.93"/><circle class="d" cx="44.81" cy="10.64" r="2.72"/><circle class="d" cx="49.97" cy="17.37" r="1.74"/><circle class="d" cx="38.55" cy="22.99" r="2.71"/><circle class="d" cx="52.48" cy="24.75" r="2.51"/><circle class="d" cx="47.53" cy="37.48" r="3.94"/><circle class="d" cx="44.81" cy="46.65" r="2.69"/><circle class="d" cx="54.89" cy="44.35" r="2.04"/><circle class="d" cx="56.93" cy="55.33" r="4.55"/><circle class="d" cx="48" cy="55.33" r="1.52"/><circle class="d" cx="47.67" cy="64.04" r="3.23"/><circle class="d" cx="61.53" cy="65.4" r="3.03"/><circle class="d" cx="54.23" cy="72" r="4.27"/><circle class="d" cx="57" cy="82.92" r="2.77"/><circle class="d" cx="64.15" cy="76.7" r="1.78"/><circle class="d" cx="65.53" cy="94.42" r="2.87"/><circle class="d" cx="54.89" cy="99.09" r="2.84"/><circle class="d" cx="71.67" cy="100.12" r="2.82"/><circle class="d" cx="73.4" cy="111.15" r="2.98"/><circle class="d" cx="64.15" cy="110.2" r="4.24"/><circle class="d" cx="61.69" cy="120.24" r="2.46"/><path class="d" d="M86.18,25.79l-2.05-10.16s-24.3,4.34-50.09,14.15C8.25,39.59-.65,49.63,.04,57.74c.68,8.1,36.28,14.26,36.28,14.26,0,0-21.11-7.99-22.14-13.81s6.85-13.01,26.02-19.05c19.17-6.05,45.98-13.35,45.98-13.35Z"/><path class="d" d="M94.4,9.58V0s-27.84,2.62-56.25,13.81C9.73,24.99,2.66,41.42,2.66,41.42c0,0,20.42-15.06,43.7-23.16s48.04-8.67,48.04-8.67Z"/><path class="d" d="M20.4,96.33l2.05,10.16s24.3-4.34,50.09-14.15c25.79-9.81,34.69-19.85,34-27.95s-36.28-14.26-36.28-14.26c0,0,21.11,7.99,22.14,13.81s-6.85,13.01-26.02,19.05-45.98,13.35-45.98,13.35Z"/><path class="d" d="M12.18,112.54v9.58s27.84-2.62,56.25-13.81,35.49-27.61,35.49-27.61c0,0-20.42,15.06-43.7,23.16-23.28,8.1-48.04,8.67-48.04,8.67Z"/></g></g></g></g></svg>