<?xml version="1.0" encoding="UTF-8"?><svg xmlns="http://www.w3.org/2000/svg" viewBox="0 0 1920 1080"><defs><style>.cls-1{fill:#4d5157;}.cls-2{fill:#7d828c;}</style></defs><g id="Capa_10"><g><rect class="cls-2" x="1831.51" y="638.74" width="85.99" height="89.37"/><path class="cls-1" d="M1915,641.24v84.37h-80.99v-84.37h80.99m5-5h-90.99v94.37h90.99v-94.37h0Z"/></g><g><rect class="cls-2" x="1647.1" y="1.32" width="89.37" height="542.27"/><path class="cls-1" d="M1733.96,3.82V541.1h-84.37V3.82h84.37m5-5h-94.37V546.1h94.37V-1.18h0Z"/></g><g><g><path class="cls-2" d="M1737.46,727.4c-50.66,0-91.87-41.21-91.87-91.87v-90.46h89.37v70.46c0,12.41,10.09,22.5,22.5,22.5h69.05v89.37h-89.05Z"/><path class="cls-1" d="M1732.46,547.57v67.96c0,13.78,11.21,25,25,25h66.55v84.37h-86.55c-49.28,0-89.37-40.09-89.37-89.37v-87.96h84.37m5-5h-94.37v92.96c0,52.12,42.25,94.37,94.37,94.37h91.55v-94.37h-71.55c-11.05,0-20-8.95-20-20v-72.96h0Z"/></g><g><rect class="cls-2" x="1814.63" y="631.02" width="25.42" height="104.81"/><path class="cls-1" d="M1837.55,633.52v99.81h-20.42v-99.81h20.42m5-5h-30.42v109.81h30.42v-109.81h0Z"/></g><g><rect class="cls-2" x="1637.88" y="525.72" width="104.81" height="25.42"/><path class="cls-1" d="M1740.18,528.22v20.42h-99.81v-20.42h99.81m5-5h-109.81v30.42h109.81v-30.42h0Z"/></g></g></g><g id="Capa_9"><g><rect class="cls-2" x="1639.38" y="-13.89" width="104.81" height="25.42"/><path class="cls-1" d="M1741.68-11.39V9.03h-99.81V-11.39h99.81m5-5h-109.81V14.03h109.81V-16.39h0Z"/></g></g></svg>