<?xml version="1.0" encoding="UTF-8"?><svg xmlns="http://www.w3.org/2000/svg" viewBox="0 0 1920 1080"><defs><style>.cls-1{fill:#4d5157;}.cls-2{fill:#7d828c;}</style></defs><g id="Capa_10"><path class="cls-1" d="M1733.96,1083.82v537.27h-84.37v-537.27h84.37m5-5h-94.37v547.27h94.37v-547.27h0Z"/></g><g id="Capa_9"><g><rect class="cls-2" x="239.5" y="241.8" width="89.37" height="542.27"/><path class="cls-1" d="M326.36,244.3V781.58h-84.37V244.3h84.37m5-5h-94.37V786.58h94.37V239.3h0Z"/></g><g><rect class="cls-2" x="2.5" y="52.84" width="142.47" height="89.37"/><path class="cls-1" d="M142.47,55.34v84.37H5V55.34H142.47m5-5H0v94.37H147.47V50.34h0Z"/></g><g><rect class="cls-2" x="412.14" y="889.14" width="1140.08" height="89.37"/><path class="cls-1" d="M1549.72,891.64v84.37H414.64v-84.37H1549.72m5-5H409.64v94.37H1554.72v-94.37h0Z"/></g><g><g><path class="cls-2" d="M239.5,232.65v-70.46c0-12.41-10.09-22.5-22.5-22.5h-69.05V50.33h89.05c50.66,0,91.87,41.21,91.87,91.87v90.46h-89.37Z"/><path class="cls-1" d="M237,52.83c49.28,0,89.37,40.09,89.37,89.37v87.96h-84.37v-67.96c0-13.78-11.21-25-25-25h-66.55V52.83h86.55m0-5h-91.55v94.37h71.55c11.05,0,20,8.95,20,20v72.96h94.37v-92.96c0-52.12-42.25-94.37-94.37-94.37h0Z"/></g><g><rect class="cls-2" x="134.41" y="41.9" width="25.42" height="104.81"/><path class="cls-1" d="M157.33,44.4v99.81h-20.42V44.4h20.42m5-5h-30.42v109.81h30.42V39.4h0Z"/></g><g><rect class="cls-2" x="231.78" y="226.59" width="104.81" height="25.42"/><path class="cls-1" d="M334.08,229.09v20.42h-99.81v-20.42h99.81m5-5h-109.81v30.42h109.81v-30.42h0Z"/></g></g><g><g><path class="cls-2" d="M329.86,975.55c-50.66,0-91.87-41.21-91.87-91.87v-90.46h89.37v70.46c0,12.41,10.09,22.5,22.5,22.5h69.05v89.37h-89.05Z"/><path class="cls-1" d="M324.86,795.73v67.96c0,13.78,11.21,25,25,25h66.55v84.37h-86.55c-49.28,0-89.37-40.09-89.37-89.37v-87.96h84.37m5-5h-94.37v92.96c0,52.12,42.25,94.37,94.37,94.37h91.55v-94.37h-71.55c-11.05,0-20-8.95-20-20v-72.96h0Z"/></g><g><rect class="cls-2" x="407.03" y="879.17" width="25.42" height="104.81"/><path class="cls-1" d="M429.95,881.67v99.81h-20.42v-99.81h20.42m5-5h-30.42v109.81h30.42v-109.81h0Z"/></g><g><rect class="cls-2" x="230.28" y="773.87" width="104.81" height="25.42"/><path class="cls-1" d="M332.58,776.37v20.42h-99.81v-20.42h99.81m5-5h-109.81v30.42h109.81v-30.42h0Z"/></g></g><g><g><path class="cls-2" d="M1647.1,1072.17v-70.46c0-12.41-10.09-22.5-22.5-22.5h-69.05v-89.37h89.05c50.66,0,91.87,41.21,91.87,91.87v90.46h-89.37Z"/><path class="cls-1" d="M1644.6,892.35c49.28,0,89.37,40.09,89.37,89.37v87.96h-84.37v-67.96c0-13.78-11.21-25-25-25h-66.55v-84.37h86.55m0-5h-91.55v94.37h71.55c11.05,0,20,8.95,20,20v72.96h94.37v-92.96c0-52.12-42.25-94.37-94.37-94.37h0Z"/></g><g><rect class="cls-2" x="1542.01" y="881.42" width="25.42" height="104.81"/><path class="cls-1" d="M1564.93,883.92v99.81h-20.42v-99.81h20.42m5-5h-30.42v109.81h30.42v-109.81h0Z"/></g><g><rect class="cls-2" x="1639.38" y="1066.11" width="104.81" height="25.42"/><path class="cls-1" d="M1741.68,1068.61v20.42h-99.81v-20.42h99.81m5-5h-109.81v30.42h109.81v-30.42h0Z"/></g></g></g></svg>