<?xml version="1.0" encoding="UTF-8"?><svg xmlns="http://www.w3.org/2000/svg" viewBox="0 0 1920 1080"><defs><style>.cls-1{fill:#4d5157;}.cls-2{stroke:#4d5157;stroke-linecap:round;stroke-linejoin:round;stroke-width:5px;}.cls-2,.cls-3{fill:#7d828c;}</style></defs><g id="colector"><g><rect class="cls-2" x="1374.87" y="235.29" width="335.8" height="403.68"/><rect class="cls-2" x="1348.67" y="235.29" width="383.44" height="16.67"/><rect class="cls-2" x="1348.67" y="300.78" width="383.44" height="16.67"/><rect class="cls-2" x="1348.67" y="638.97" width="383.44" height="16.67"/><rect class="cls-2" x="1385.59" y="655.64" width="21.43" height="389.39"/><rect class="cls-2" x="1671.38" y="655.64" width="21.43" height="389.39"/><polygon class="cls-2" points="1573.14 753.88 1671.38 655.64 1407.02 655.64 1505.56 754.18 1573.14 753.88"/><rect class="cls-2" x="1470.13" y="772.34" width="141.7" height="246.5"/><rect class="cls-2" x="1505.56" y="754.18" width="65.88" height="18.16"/><rect class="cls-2" x="1462.93" y="819.8" width="156.84" height="8.51" rx="2.77" ry="2.77"/><rect class="cls-2" x="1462.93" y="893.93" width="156.84" height="8.51" rx="2.77" ry="2.77"/><rect class="cls-2" x="1462.93" y="968.07" width="156.84" height="8.51" rx="2.77" ry="2.77"/><rect class="cls-2" x="1448.13" y="190.18" width="189.28" height="45.11"/><path class="cls-2" d="M1536.17,100.5h8.44c15.25,0,27.64,12.38,27.64,27.64v62.04h-63.72v-62.04c0-15.25,12.38-27.64,27.64-27.64Z"/></g></g><g id="Capa_11"><g><rect class="cls-3" x="636.44" y="102.05" width="398.06" height="89.37"/><path class="cls-1" d="M1032,104.55v84.37h-393.06V104.55h393.06m5-5h-403.06v94.37h403.06V99.55h0Z"/></g><g><g><path class="cls-3" d="M542.39,190.71c-50.65,0-91.87-41.21-91.87-91.87V8.39h89.37V78.85c0,12.41,10.09,22.5,22.5,22.5h69.05v89.37h-89.05Z"/><path class="cls-1" d="M537.39,10.89V78.85c0,13.79,11.21,25,25,25h66.55v84.37h-86.55c-49.28,0-89.37-40.09-89.37-89.37V10.89h84.37m5-5h-94.37V98.85h0c0,52.12,42.25,94.37,94.37,94.37h91.55V98.85h-71.55c-11.05,0-20-8.95-20-20V5.89h0Z"/></g><g><rect class="cls-3" x="619.56" y="94.33" width="25.42" height="104.81"/><path class="cls-1" d="M642.48,96.83v99.81h-20.42V96.83h20.42m5-5h-30.42v109.81h30.42V91.83h0Z"/></g><g><rect class="cls-3" x="442.81" y="-10.97" width="104.81" height="25.42"/><path class="cls-1" d="M545.11-8.47V11.95h-99.81V-8.47h99.81m5-5h-109.81V16.95h109.81V-13.47h0Z"/></g></g><g><g><path class="cls-3" d="M1127.73,285.32v-70.46c0-12.41-10.09-22.5-22.5-22.5h-69.05V103h89.05c50.66,0,91.87,41.21,91.87,91.87v90.46h-89.37Z"/><path class="cls-1" d="M1125.23,105.5c49.28,0,89.37,40.09,89.37,89.37v87.96h-84.37v-67.96c0-13.79-11.21-25-25-25h-66.55V105.5h86.55m0-5h-91.55v94.37h71.55c11.05,0,20,8.95,20,20v72.96h94.37v-92.96h0c0-52.12-42.25-94.37-94.37-94.37h0Z"/></g><g><rect class="cls-3" x="1022.65" y="94.57" width="25.42" height="104.81"/><path class="cls-1" d="M1045.56,97.07v99.81h-20.42V97.07h20.42m5-5h-30.42v109.81h30.42V92.07h0Z"/></g><g><rect class="cls-3" x="1120.01" y="279.26" width="104.81" height="25.42"/><path class="cls-1" d="M1222.32,281.76v20.42h-99.81v-20.42h99.81m5-5h-109.81v30.42h109.81v-30.42h0Z"/></g></g><g><g><path class="cls-3" d="M1218.1,479.84c-50.66,0-91.87-41.21-91.87-91.87v-90.46h89.37v70.46c0,12.41,10.09,22.5,22.5,22.5h69.05v89.37h-89.05Z"/><path class="cls-1" d="M1213.1,300.02v67.96c0,13.79,11.21,25,25,25h66.55v84.37h-86.55c-49.28,0-89.37-40.09-89.37-89.37v-87.96h84.37m5-5h-94.37v92.96h0c0,52.12,42.25,94.37,94.37,94.37h91.55v-94.37h-71.55c-11.05,0-20-8.95-20-20v-72.96h0Z"/></g><g><rect class="cls-3" x="1295.27" y="383.46" width="25.42" height="104.81"/><path class="cls-1" d="M1318.18,385.96v99.81h-20.42v-99.81h20.42m5-5h-30.42v109.81h30.42v-109.81h0Z"/></g><g><rect class="cls-3" x="1118.51" y="278.16" width="104.81" height="25.42"/><path class="cls-1" d="M1220.82,280.66v20.42h-99.81v-20.42h99.81m5-5h-109.81v30.42h109.81v-30.42h0Z"/></g></g></g><g id="Capa_1"><g><rect class="cls-3" x="1313.16" y="391.18" width="61.4" height="89.37"/><path class="cls-1" d="M1372.07,393.68v84.37h-56.4v-84.37h56.4m5-5h-66.4v94.37h66.4v-94.37h0Z"/></g></g></svg>