<?xml version="1.0" encoding="UTF-8"?><svg xmlns="http://www.w3.org/2000/svg" viewBox="0 0 1920 1080"><defs><style>.cls-1{fill:#4d5157;}.cls-2{fill:#7d828c;}</style></defs><g id="Capa_8"><path class="cls-1" d="M335.94,1084.17v334.46h-84.37v-334.46h84.37m5-5h-94.37v344.46h94.37v-344.46h0Z"/></g><g id="Capa_7"><g><rect class="cls-2" x="1720.97" y="140.6" width="196.53" height="89.37"/><path class="cls-1" d="M1915,143.1v84.37h-191.53v-84.37h191.53m5-5h-201.53v94.37h201.53v-94.37h0Z"/></g><g><rect class="cls-2" x="441.26" y="897.43" width="993.31" height="89.37"/><path class="cls-1" d="M1432.07,899.93v84.37H443.76v-84.37h988.31m5-5H438.76v94.37h998.31v-94.37h0Z"/></g><g><rect class="cls-2" x="1531.4" y="323.34" width="89.37" height="480.71"/><path class="cls-1" d="M1618.26,325.84v475.71h-84.37V325.84h84.37m5-5h-94.37v485.71h94.37V320.84h0Z"/></g><g><g><path class="cls-2" d="M1532.1,320.01v-89.05c0-50.66,41.21-91.87,91.87-91.87h90.46v89.37h-70.46c-12.41,0-22.5,10.09-22.5,22.5v69.05h-89.37Z"/><path class="cls-1" d="M1711.93,141.6v84.37h-67.96c-13.79,0-25,11.21-25,25v66.55h-84.37v-86.55c0-49.28,40.09-89.37,89.37-89.37h87.96m5-5h-92.96c-52.12,0-94.37,42.25-94.37,94.37v91.55h94.37v-71.55c0-11.05,8.95-20,20-20h72.96v-94.37h0Z"/></g><g><rect class="cls-2" x="1523.68" y="308.14" width="104.81" height="25.42"/><path class="cls-1" d="M1625.98,310.64v20.42h-99.81v-20.42h99.81m5-5h-109.81v30.42h109.81v-30.42h0Z"/></g><g><rect class="cls-2" x="1708.37" y="131.38" width="25.42" height="104.81"/><path class="cls-1" d="M1731.29,133.88v99.81h-20.42v-99.81h20.42m5-5h-30.42v109.81h30.42v-109.81h0Z"/></g></g><g><g><path class="cls-2" d="M1437.68,985.95v-89.37h70.46c12.41,0,22.5-10.09,22.5-22.5v-69.05h89.37v89.05c0,50.66-41.21,91.87-91.87,91.87h-90.46Z"/><path class="cls-1" d="M1617.5,807.53v86.55c0,49.28-40.09,89.37-89.37,89.37h-87.96v-84.37h67.96c13.79,0,25-11.21,25-25v-66.55h84.37m5-5h-94.37v71.55c0,11.05-8.95,20-20,20h-72.96v94.37h92.96c52.12,0,94.37-42.25,94.37-94.37v-91.55h0Z"/></g><g><rect class="cls-2" x="1523.62" y="791.5" width="104.81" height="25.42"/><path class="cls-1" d="M1625.92,794v20.42h-99.81v-20.42h99.81m5-5h-109.81v30.42h109.81v-30.42h0Z"/></g><g><rect class="cls-2" x="1418.32" y="888.86" width="25.42" height="104.81"/><path class="cls-1" d="M1441.23,891.36v99.81h-20.42v-99.81h20.42m5-5h-30.42v109.81h30.42v-109.81h0Z"/></g></g><g><g><path class="cls-2" d="M249.78,1078.34v-89.05c0-50.66,41.21-91.87,91.87-91.87h90.46v89.37h-70.46c-12.41,0-22.5,10.09-22.5,22.5v69.05h-89.37Z"/><path class="cls-1" d="M429.61,899.93v84.37h-67.96c-13.79,0-25,11.21-25,25v66.55h-84.37v-86.55c0-49.28,40.09-89.37,89.37-89.37h87.96m5-5h-92.96c-52.12,0-94.37,42.25-94.37,94.37v91.55h94.37v-71.55c0-11.05,8.95-20,20-20h72.96v-94.37h0Z"/></g><g><rect class="cls-2" x="241.36" y="1066.46" width="104.81" height="25.42"/><path class="cls-1" d="M343.66,1068.96v20.42h-99.81v-20.42h99.81m5-5h-109.81v30.42h109.81v-30.42h0Z"/></g><g><rect class="cls-2" x="426.05" y="889.71" width="25.42" height="104.81"/><path class="cls-1" d="M448.96,892.21v99.81h-20.42v-99.81h20.42m5-5h-30.42v109.81h30.42v-109.81h0Z"/></g></g></g></svg>